<svg fill="none" height="512" viewBox="0 0 24 24" width="512" xmlns="http://www.w3.org/2000/svg"><g clip-rule="evenodd" fill-rule="evenodd"><path d="m13.2215.531652c-1.1915-.336861-2.1897.635798-2.1897 1.723978 0 .33713-.2733.61043-.6104.61043s-.61044-.2733-.61044-.61043c0-1.08818-.99817-2.060839-2.18972-1.723977-.81285.229801-1.58462.557037-2.30183.968157-1.02109.58531-1.04215 1.91096-.30656 2.64656.23839.23838.23839.62489 0 .86328-.23839.23838-.62489.23838-.86328 0-.73559-.7356-2.06125-.71454-2.64656.30656-.41113.71721-.738373 1.48899-.968177 2.30185-.336862 1.19155.635797 2.18972 1.723977 2.18972.33713 0 .61043.27332.61043.61042s-.2733.6104-.61043.6104c-1.08815 0-2.06085.9982-1.723984 2.1897.256358.9068.633974 1.7625 1.114014 2.5483.60199.9854 1.89898.9919 2.62287.268.26208-.2621.68701-.2621.9491 0 .26773.2678.26111.7038-.01462.9633-.7056.6641-.68055 1.9045.27523 2.4296.67101.3687 1.38786.6647 2.13986.8773 1.19158.3369 2.18968-.6359 2.18968-1.724 0-.3371.27334-.6104.61044-.6104s.6104.2733.6104.6104c0 1.0882.9982 2.0608 2.1897 1.724.8129-.2298 1.5847-.5571 2.3019-.9682 1.0211-.5853 1.0421-1.9109.3065-2.6465-.2384-.2384-.2384-.6249 0-.8633s.6249-.2384.8633 0c.7356.7356 2.0612.7145 2.6466-.3065.4111-.7173.7383-1.4891.9682-2.3019.3368-1.1916-.6358-2.1898-1.724-2.1898-.3372 0-.6105-.2733-.6105-.6104s.2733-.61042.6105-.61042c1.0882 0 2.0608-.99817 1.724-2.18972-.2299-.81286-.5571-1.58464-.9682-2.30185-.5853-1.0211-1.911-1.04216-2.6466-.30656-.2384.23838-.6249.23838-.8633 0-.2384-.23839-.2384-.6249 0-.86328.7356-.73559.7146-2.06125-.3065-2.64656-.7172-.41112-1.489-.738356-2.3019-.968158z" fill="#f44336"/><path d="m7.27143 8.94315c.5162-.27229.71393-.91149.44164-1.42768-.19325-.36637-.05291-.82004.31345-1.01329.36637-.19325.82004-.05292 1.01329.31345.6588 1.24893.18039 2.79546-1.06854 3.45427-.36637.1932-.82003.0529-1.01329-.31347-.19325-.36637-.05291-.82003.31345-1.01328z" fill="#aa2b21"/><path d="m17.5 11.75c-3.063 0-5.75 2.1503-5.75 5.0357 0 1.4051.6531 2.6529 1.6667 3.5479v2.1664c0 .4142.3358.75.75.75h6.6666c.4142 0 .75-.3358.75-.75v-2.1664c1.0136-.895 1.6667-2.1428 1.6667-3.5479 0-2.8854-2.687-5.0357-5.75-5.0357z" fill="#90a7b2"/><path d="m18.25 23.25v-2.8928c0-.4142-.3358-.75-.75-.75s-.75.3358-.75.75v2.8928z" fill="#486472"/><path d="m15.5 15.25c-.6904 0-1.25.5596-1.25 1.25s.5596 1.25 1.25 1.25 1.25-.5596 1.25-1.25-.5596-1.25-1.25-1.25z" fill="#486472"/><path d="m19.5 15.25c-.6904 0-1.25.5596-1.25 1.25s.5596 1.25 1.25 1.25 1.25-.5596 1.25-1.25-.5596-1.25-1.25-1.25z" fill="#486472"/><g fill="#000"><path d="m8.21283 2.02183c-.05279-.04383-.10933-.05709-.17575-.03832-.69344.19605-1.35215.47529-1.96471.82642-.04011.023-.05999.05418-.06436.10201-.00495.05435.01377.12439.07244.18306.82437.82437.82437 2.16093 0 2.9853s-2.16093.82437-2.9853 0c-.05867-.05868-.12871-.07739-.18306-.07244-.04783.00436-.07902.02425-.10202.06436-.35113.61257-.63038 1.27128-.82643 1.96473-.01877.06642-.00551.12296.03832.17575.04846.05837.13358.10636.2426.10636 1.16583 0 2.11092.94509 2.11092 2.11094 0 1.1658-.94509 2.1109-2.11092 2.1109-.10903 0-.19416.048-.24262.1064-.04382.0527-.05708.1093-.0383.1757.21869.7736.54093 1.5039.95101 2.1752.02356.0386.05509.058.10275.0617.05384.0042.12252-.0149.17993-.0723.84808-.8481 2.22308-.8481 3.07116 0 .86633.8663.84492 2.2774-.04729 3.117-.01015.0096-.01473.018-.01705.0242-.00072.0019-.00164.0053-.00164.0053.56963.3119 1.17745.5622 1.8146.7424.06641.0187.12295.0055.17573-.0383.05836-.0485.10634-.1336.10634-.2427 0-1.1658.9451-2.1109 2.11092-2.1109.4142 0 .75.3358.75.75s-.3358.75-.75.75c-.3374 0-.61092.2735-.61092.6109 0 1.0884-.99832 2.0613-2.19013 1.7244-.75225-.2127-1.46934-.5088-2.14058-.8776-.95594-.5252-.98101-1.7659-.27527-2.43.27594-.2597.28256-.6961.01463-.964-.26229-.2623-.68755-.2623-.94983 0-.72404.724-2.0213.7175-2.6234-.2681-.4802-.7861-.857945-1.642-1.11439-2.5492-.336931-1.1918.63596-2.1901 1.72435-2.1901.3374 0 .61092-.2735.61092-.6109s-.27352-.61095-.61092-.61095c-1.08842 0-2.06127-.99838-1.724343-2.19017.229882-.81313.557243-1.58517.968503-2.30263.58542-1.02128 1.91134-1.04236 2.64709-.30661.23858.23858.6254.23858.86398 0s.23858-.6254 0-.86398c-.73575-.73575-.71467-2.06167.30662-2.64709.71745-.41125 1.48948-.738603 2.3026-.968481 1.19179-.336928 2.19017.635921 2.19017 1.724341 0 .33741.27352.61093.61092.61093s.6109-.27352.6109-.61093c0-1.08842.9984-2.061269 2.1902-1.724341.8131.229878 1.5852.557231 2.3026.968481 1.0213.58542 1.0424 1.91134.3066 2.64709-.2386.23858-.2386.6254 0 .86398s.6254.23858.864 0c.7358-.73575 2.0617-.71467 2.6471.30661.4113.71746.7386 1.4895.9685 2.30263.3369 1.19179-.6359 2.19017-1.7243 2.19017-.3374 0-.611.27355-.611.61095 0 .4142-.3358.75-.75.75s-.75-.3358-.75-.75c0-1.16585.9451-2.11094 2.111-2.11094.109 0 .1941-.04799.2426-.10636.0438-.05279.0571-.10933.0383-.17575-.1961-.69345-.4753-1.35216-.8265-1.96473-.023-.04011-.0541-.06-.102-.06436-.0543-.00495-.1244.01376-.183.07244-.8244.82437-2.161.82437-2.9853 0-.8244-.82437-.8244-2.16093 0-2.9853.0586-.05867.0774-.12871.0724-.18306-.0044-.04783-.0242-.07901-.0644-.10201-.6125-.35113-1.2712-.63037-1.9647-.82642-.0664-.01877-.1229-.00551-.1757.03832-.0584.04846-.1064.13359-.1064.2426 0 1.16583-.9451 2.11093-2.1109 2.11093-1.16582 0-2.11092-.9451-2.11092-2.11093 0-.10901-.04798-.19414-.10635-.2426z"/><path d="m7.27936 8.95619c.51695-.27268.71496-.9128.44228-1.42974-.19326-.36637-.05292-.82004.31345-1.01329s.82003-.05292 1.01329.31345c.65919 1.24968.1805 2.79712-1.06918 3.45629-.36637.1933-.82003.0529-1.01329-.31343-.19325-.36637-.05292-.82003.31345-1.01328z"/><path d="m17.5 13.25c-2.4598 0-4.25 1.6873-4.25 3.5357 0 1.0021.5065 1.9345 1.3732 2.5994.185.1419.2935.3619.2935.5951v1.7698h5.1666v-1.7698c0-.2332.1085-.4532.2935-.5951.8667-.6649 1.3732-1.5973 1.3732-2.5994 0-1.8484-1.7902-3.5357-4.25-3.5357zm-5.75 3.5357c0-2.8854 2.687-5.0357 5.75-5.0357s5.75 2.1503 5.75 5.0357c0 1.4051-.6531 2.6529-1.6667 3.5479v2.1664c0 .4142-.3358.75-.75.75h-6.6666c-.4142 0-.75-.3358-.75-.75v-2.1664c-1.0136-.895-1.6667-2.1428-1.6667-3.5479z"/><path d="m17.5 19.6072c.4142 0 .75.3358.75.75v2.1428h-1.5v-2.1428c0-.4142.3358-.75.75-.75z"/><path d="m15.5 15.25c-.6904 0-1.25.5596-1.25 1.25s.5596 1.25 1.25 1.25 1.25-.5596 1.25-1.25-.5596-1.25-1.25-1.25z"/><path d="m19.5 15.25c-.6904 0-1.25.5596-1.25 1.25s.5596 1.25 1.25 1.25 1.25-.5596 1.25-1.25-.5596-1.25-1.25-1.25z"/></g></g></svg>