<svg xmlns="http://www.w3.org/2000/svg" height="512pt" version="1.1" viewBox="0 -34 512.00004 512" width="512pt">
<g id="surface1">
<path d="M 496.640625 308.105469 L 15.359375 308.105469 C 6.878906 308.105469 0 301.226562 0 292.746094 L 0 15.359375 C 0 6.878906 6.878906 0 15.359375 0 L 496.640625 0 C 505.121094 0 512 6.878906 512 15.359375 L 512 292.746094 C 512 301.226562 505.121094 308.105469 496.640625 308.105469 Z M 496.640625 308.105469 " style=" stroke:none;fill-rule:nonzero;fill:rgb(100%,43.921569%,27.058824%);fill-opacity:1;" />
<path d="M 496.640625 0 L 255.996094 0 L 255.996094 308.105469 L 496.640625 308.105469 C 505.121094 308.105469 512 301.226562 512 292.746094 L 512 15.359375 C 512 6.878906 505.121094 0 496.640625 0 Z M 496.640625 0 " style=" stroke:none;fill-rule:nonzero;fill:rgb(96.470588%,29.803922%,10.980392%);fill-opacity:1;" />
<path d="M 320.511719 443.269531 L 191.488281 443.269531 C 183.003906 443.269531 176.128906 436.394531 176.128906 427.910156 L 176.128906 360.328125 C 176.128906 351.84375 183.003906 344.96875 191.488281 344.96875 L 320.511719 344.96875 C 328.992188 344.96875 335.871094 351.84375 335.871094 360.328125 L 335.871094 427.910156 C 335.871094 436.394531 328.996094 443.269531 320.511719 443.269531 Z M 320.511719 443.269531 " style=" stroke:none;fill-rule:nonzero;fill:rgb(23.137255%,28.627451%,34.509804%);fill-opacity:1;" />
<path d="M 320.511719 344.96875 L 255.996094 344.96875 L 255.996094 443.269531 L 320.511719 443.269531 C 328.992188 443.269531 335.871094 436.394531 335.871094 427.910156 L 335.871094 360.328125 C 335.871094 351.84375 328.996094 344.96875 320.511719 344.96875 Z M 320.511719 344.96875 " style=" stroke:none;fill-rule:nonzero;fill:rgb(9.019608%,12.54902%,16.470588%);fill-opacity:1;" />
<path d="M 381.953125 443.269531 L 130.046875 443.269531 C 121.5625 443.269531 114.6875 436.394531 114.6875 427.910156 C 114.6875 419.425781 121.5625 412.550781 130.046875 412.550781 L 381.953125 412.550781 C 390.4375 412.550781 397.3125 419.425781 397.3125 427.910156 C 397.3125 436.394531 390.4375 443.269531 381.953125 443.269531 Z M 381.953125 443.269531 " style=" stroke:none;fill-rule:nonzero;fill:rgb(89.411765%,89.411765%,89.411765%);fill-opacity:1;" />
<path d="M 381.953125 412.550781 L 255.996094 412.550781 L 255.996094 443.269531 L 381.953125 443.269531 C 390.4375 443.269531 397.3125 436.394531 397.3125 427.910156 C 397.3125 419.425781 390.4375 412.550781 381.953125 412.550781 Z M 381.953125 412.550781 " style=" stroke:none;fill-rule:nonzero;fill:rgb(81.176471%,81.176471%,81.176471%);fill-opacity:1;" />
<path d="M 496.640625 375.6875 L 15.359375 375.6875 C 6.878906 375.6875 0 368.808594 0 360.328125 L 0 292.746094 C 0 284.261719 6.878906 277.382812 15.359375 277.382812 L 496.640625 277.382812 C 505.121094 277.382812 512 284.261719 512 292.746094 L 512 360.328125 C 512 368.808594 505.121094 375.6875 496.640625 375.6875 Z M 496.640625 375.6875 " style=" stroke:none;fill-rule:nonzero;fill:rgb(89.411765%,89.411765%,89.411765%);fill-opacity:1;" />
<path d="M 496.640625 277.382812 L 255.996094 277.382812 L 255.996094 375.6875 L 496.640625 375.6875 C 505.121094 375.6875 512 368.808594 512 360.328125 L 512 292.746094 C 512 284.261719 505.121094 277.382812 496.640625 277.382812 Z M 496.640625 277.382812 " style=" stroke:none;fill-rule:nonzero;fill:rgb(81.176471%,81.176471%,81.176471%);fill-opacity:1;" />
<path d="M 256 95.421875 C 232.09375 95.421875 212.648438 114.867188 212.648438 138.773438 L 212.648438 177.964844 C 212.648438 201.867188 232.097656 221.316406 256 221.316406 C 279.902344 221.316406 299.351562 201.867188 299.351562 177.964844 L 299.351562 138.773438 C 299.351562 114.867188 279.902344 95.421875 256 95.421875 Z M 268.632812 177.964844 C 268.632812 184.929688 262.964844 190.59375 256 190.59375 C 249.035156 190.59375 243.371094 184.929688 243.371094 177.964844 L 243.371094 138.773438 C 243.371094 131.808594 249.035156 126.140625 256 126.140625 C 262.964844 126.140625 268.632812 131.808594 268.632812 138.773438 Z M 268.632812 177.964844 " style=" stroke:none;fill-rule:nonzero;fill:rgb(23.137255%,28.627451%,34.509804%);fill-opacity:1;" />
<path d="M 256 95.421875 C 256 95.421875 255.996094 95.421875 255.996094 95.421875 L 255.996094 126.140625 C 255.996094 126.140625 256 126.140625 256 126.140625 C 262.964844 126.140625 268.628906 131.808594 268.628906 138.773438 L 268.628906 177.964844 C 268.628906 184.929688 262.964844 190.59375 256 190.59375 C 256 190.59375 255.996094 190.59375 255.996094 190.59375 L 255.996094 221.316406 C 255.996094 221.316406 256 221.316406 256 221.316406 C 279.902344 221.316406 299.351562 201.867188 299.351562 177.964844 L 299.351562 138.773438 C 299.351562 114.867188 279.902344 95.421875 256 95.421875 Z M 256 95.421875 " style=" stroke:none;fill-rule:nonzero;fill:rgb(9.019608%,12.54902%,16.470588%);fill-opacity:1;" />
<path d="M 177.152344 95.421875 C 168.671875 95.421875 161.792969 102.300781 161.792969 110.78125 L 161.792969 142.152344 L 136.53125 142.152344 L 136.53125 110.78125 C 136.53125 102.300781 129.652344 95.421875 121.171875 95.421875 C 112.6875 95.421875 105.8125 102.300781 105.8125 110.78125 L 105.8125 157.511719 C 105.8125 165.996094 112.6875 172.875 121.171875 172.875 L 161.792969 172.875 L 161.792969 205.957031 C 161.792969 214.4375 168.671875 221.316406 177.152344 221.316406 C 185.636719 221.316406 192.511719 214.4375 192.511719 205.957031 L 192.511719 110.78125 C 192.511719 102.296875 185.636719 95.421875 177.152344 95.421875 Z M 177.152344 95.421875 " style=" stroke:none;fill-rule:nonzero;fill:rgb(23.137255%,28.627451%,34.509804%);fill-opacity:1;" />
<path d="M 390.828125 95.421875 C 382.34375 95.421875 375.46875 102.300781 375.46875 110.78125 L 375.46875 142.152344 L 350.207031 142.152344 L 350.207031 110.78125 C 350.207031 102.300781 343.328125 95.421875 334.84375 95.421875 C 326.363281 95.421875 319.484375 102.300781 319.484375 110.78125 L 319.484375 157.511719 C 319.484375 165.996094 326.363281 172.875 334.84375 172.875 L 375.46875 172.875 L 375.46875 205.957031 C 375.46875 214.4375 382.34375 221.316406 390.828125 221.316406 C 399.308594 221.316406 406.1875 214.4375 406.1875 205.957031 L 406.1875 110.78125 C 406.1875 102.296875 399.3125 95.421875 390.828125 95.421875 Z M 390.828125 95.421875 " style=" stroke:none;fill-rule:nonzero;fill:rgb(9.019608%,12.54902%,16.470588%);fill-opacity:1;" />
</g>
</svg>