<svg id="Capa_1" enable-background="new 0 0 512 512" height="512" viewBox="0 0 512 512" width="512" xmlns="http://www.w3.org/2000/svg"><g><g><g><g><path d="m235 140h-30c-8.284 0-15-6.716-15-15 0-8.284 6.716-15 15-15h30c8.284 0 15 6.716 15 15 0 8.284-6.716 15-15 15z" fill="#b10f61"/></g><g><path d="m45 140h-30c-8.284 0-15-6.716-15-15 0-8.284 6.716-15 15-15h30c8.284 0 15 6.716 15 15 0 8.284-6.716 15-15 15z" fill="#ff405c"/></g></g><g><g><path d="m170.962 79.038c-5.858-5.858-5.858-15.355 0-21.213l21.214-21.214c5.858-5.858 15.355-5.858 21.213 0 5.858 5.858 5.858 15.355 0 21.213l-21.214 21.214c-5.858 5.858-15.355 5.858-21.213 0z" fill="#b10f61"/></g><g><path d="m36.612 213.389c-5.858-5.858-5.858-15.355 0-21.213l21.214-21.214c5.858-5.858 15.355-5.858 21.213 0 5.858 5.858 5.858 15.355 0 21.213l-21.214 21.214c-5.858 5.857-15.355 5.858-21.213 0z" fill="#ff405c"/></g></g><g><g><path d="m125 60c-8.284 0-15-6.716-15-15v-30c0-8.284 6.716-15 15-15 8.284 0 15 6.716 15 15v30c0 8.284-6.716 15-15 15z" fill="#ff405c"/></g><path d="m125 0v60c8.284 0 15-6.716 15-15v-30c0-8.284-6.716-15-15-15z" fill="#b10f61"/><g><path d="m125 250c-8.284 0-15-6.716-15-15v-30c0-8.284 6.716-15 15-15 8.284 0 15 6.716 15 15v30c0 8.284-6.716 15-15 15z" fill="#ff405c"/></g><path d="m125 190v60c8.284 0 15-6.716 15-15v-30c0-8.284-6.716-15-15-15z" fill="#b10f61"/></g><g><g><path d="m57.825 79.038-21.213-21.214c-5.858-5.858-5.858-15.355 0-21.213 5.858-5.858 15.355-5.858 21.213 0l21.214 21.214c5.858 5.858 5.858 15.355 0 21.213-5.859 5.858-15.356 5.858-21.214 0z" fill="#ff405c"/></g><g><path d="m192.175 213.389-21.214-21.214c-5.858-5.858-5.858-15.355 0-21.213 5.858-5.858 15.355-5.858 21.213 0l21.214 21.214c5.858 5.858 5.858 15.355 0 21.213-5.858 5.858-15.355 5.857-21.213 0z" fill="#b10f61"/></g></g><g><g><g><g><path d="m125 220c-52.383 0-95-42.617-95-95s42.617-95 95-95 95 42.617 95 95-42.617 95-95 95z" fill="#ff7d47"/></g><path d="m125 30v190c52.383 0 95-42.617 95-95s-42.617-95-95-95z" fill="#ff405c"/><circle cx="160" cy="150" fill="#b10f61" r="15"/><circle cx="90" cy="100" fill="#ff405c" r="15"/></g></g></g></g><g><path d="m363.875 62.634h60v110h-60z" fill="#e2dff4" transform="matrix(.866 .5 -.5 .866 111.586 -181.178)"/><path d="m351.865 110.134h110v30h-110z" fill="#d5d3ea" transform="matrix(.5 -.866 .866 .5 95.063 414.922)"/><path d="m310.083 132.765-22.5 38.971 1.16 17.991-16.16 7.99-15 25.981 1.16 17.99 37.132 45.687 66.791 14.313 60-103.923z" fill="#e2dff4"/><path d="m422.666 197.765-56.291-32.5-70.5 122.11 66.791 14.313z" fill="#d5d3ea"/><path d="m167.348 509.988c-7.174-4.142-9.633-13.316-5.49-20.49l49.026-84.915 25.981 15-49.026 84.915c-4.142 7.174-13.316 9.632-20.491 5.49z" fill="#fff5f5"/><path d="m223.875 412.082-56.526 97.906c7.174 4.142 16.348 1.684 20.49-5.491l49.026-84.915z" fill="#e2dff4"/><path d="m258.743 241.688-16.16 7.99-15 25.981 1.16 17.99-16.16 7.99-15 25.981 1.16 17.99-16.16 7.99-12.5 21.651c-9.665 16.74-3.929 38.146 12.811 47.811l51.961 30c16.74 9.665 38.146 3.929 47.811-12.811l80-138.564z" fill="#ffef4a"/><path d="m306.375 269.188-97.5 168.875 25.98 15c16.74 9.665 38.146 3.929 47.811-12.811l80-138.564z" fill="#ffc178"/><g fill="#145481"><path d="m182.583 353.602 21.651 12.5c7.174 4.142 16.348 1.684 20.49-5.49 4.142-7.174 1.684-16.348-5.49-20.49l-21.651-12.5z"/><path d="m279.234 236.198-21.651-12.5-15 25.981 21.651 12.5c7.174 4.142 16.348 1.684 20.49-5.49 4.142-7.175 1.684-16.349-5.49-20.491z"/><path d="m212.583 301.64 38.971 22.5c7.174 4.142 16.348 1.684 20.49-5.49 4.142-7.174 1.684-16.348-5.49-20.49l-38.971-22.5z"/><path d="m287.583 171.736-15 25.981 38.971 22.5c7.174 4.142 16.348 1.684 20.49-5.49 4.142-7.174 1.684-16.348-5.49-20.49z"/></g><path d="m428.157 218.256-138.564-80c-7.174-4.142-9.633-13.316-5.49-20.49 4.142-7.174 13.316-9.633 20.49-5.49l138.564 80c7.174 4.142 9.633 13.316 5.49 20.49-4.142 7.174-13.316 9.632-20.49 5.49z" fill="#fff5f5"/><path d="m443.157 192.275-69.282-40-15 25.981 69.282 40c7.174 4.142 16.348 1.684 20.49-5.49 4.142-7.175 1.684-16.349-5.49-20.491z" fill="#e2dff4"/><path d="m466.995 120.986-112.583-65c-14.349-8.284-19.265-26.632-10.981-40.981 8.284-14.349 26.632-19.265 40.981-10.981l112.583 65c14.349 8.284 19.265 26.632 10.981 40.981-8.285 14.349-26.632 19.265-40.981 10.981z" fill="#fff5f5"/><path d="m496.995 69.024-56.292-32.5-30 51.962 56.292 32.5c14.349 8.284 32.696 3.368 40.981-10.981 8.284-14.349 3.368-32.696-10.981-40.981z" fill="#e2dff4"/></g></g></svg>